<?xml version="1.0" encoding="UTF-8"?>
<svg version="1.1" xmlns="http://www.w3.org/2000/svg" width="143" height="148">
<path d="M0 0 C47.19 0 94.38 0 143 0 C143 48.84 143 97.68 143 148 C95.81 148 48.62 148 0 148 C0 99.16 0 50.32 0 0 Z " fill="#F1F5F8" transform="translate(0,0)"/>
<path d="M0 0 C12.3455191 9.57825501 21.57728129 23.15178413 24.0390625 38.8125 C25.71032088 56.79400217 22.32347823 73.24395367 10.83203125 87.5625 C8.64333593 90.06812736 6.38692099 92.45618076 4.0390625 94.8125 C3.22888672 95.65748047 3.22888672 95.65748047 2.40234375 96.51953125 C-9.3451937 107.73443476 -26.00245221 111.34167283 -41.71679688 111.30712891 C-53.07250605 110.95027415 -63.74428983 107.53297226 -72.9609375 100.8125 C-72.6309375 98.1725 -72.3009375 95.5325 -71.9609375 92.8125 C-70.69386963 92.78744385 -69.42680176 92.7623877 -68.12133789 92.73657227 C-63.43795971 92.64268004 -58.7547362 92.54241565 -54.0715332 92.44018555 C-52.04129646 92.39676759 -50.01102158 92.35509774 -47.98071289 92.31518555 C-45.06905599 92.25764854 -42.15759236 92.19390722 -39.24609375 92.12890625 C-38.3325563 92.11219376 -37.41901886 92.09548126 -36.47779846 92.07826233 C-32.39304434 92.3894315 -32.39304434 92.3894315 -28.9609375 90.8125 C-28.79427083 88.3125 -28.79427083 88.3125 -28.9609375 85.8125 C-30.48884833 84.28458917 -31.89083158 84.65066543 -34.02172852 84.60717773 C-34.88254532 84.58723251 -35.74336212 84.56728729 -36.63026428 84.54673767 C-37.56567551 84.53002518 -38.50108673 84.51331268 -39.46484375 84.49609375 C-40.89436623 84.4649221 -40.89436623 84.4649221 -42.35276794 84.43312073 C-45.4095816 84.36751823 -48.46648406 84.30869082 -51.5234375 84.25 C-53.59050413 84.20682494 -55.65756164 84.16321099 -57.72460938 84.11914062 C-62.80329558 84.01099664 -67.88204511 83.9120031 -72.9609375 83.8125 C-72.9609375 73.9125 -72.9609375 64.0125 -72.9609375 53.8125 C-68.33301502 53.53155548 -63.71192685 53.26977471 -59.08154297 53.05566406 C-57.50770997 52.97721554 -55.93438402 52.88778508 -54.36181641 52.78710938 C-52.09842531 52.64412826 -49.8361362 52.54097503 -47.5703125 52.4453125 C-46.86912292 52.39247101 -46.16793335 52.33962952 -45.44549561 52.28518677 C-43.44433594 52.22314453 -43.44433594 52.22314453 -39.9609375 52.8125 C-37.61035156 55.77294922 -37.61035156 55.77294922 -35.9609375 58.8125 C-32.11655971 60.73468889 -27.2905132 59.92811528 -23.0859375 59.5625 C-20.81510417 59 -20.81510417 59 -19.7109375 56.9375 C-18.18697154 52.61959646 -17.48340268 49.42866994 -17.9609375 44.8125 C-20.27367192 41.9153059 -20.27367192 41.9153059 -22.9609375 39.8125 C-23.2909375 39.4825 -23.6209375 39.1525 -23.9609375 38.8125 C-26.38125448 38.45710596 -26.38125448 38.45710596 -29.2109375 38.375 C-30.64179687 38.28412109 -30.64179687 38.28412109 -32.1015625 38.19140625 C-35.27884417 38.55056072 -35.27884417 38.55056072 -37.15795898 41.81469727 C-39.38508593 44.60110168 -39.78546673 44.77927096 -43.55786133 45.49365234 C-44.92826439 45.4927118 -46.29891974 45.45934927 -47.66796875 45.3984375 C-48.39336349 45.38994781 -49.11875824 45.38145813 -49.86613464 45.37271118 C-52.17011707 45.33927401 -54.47052402 45.26403114 -56.7734375 45.1875 C-58.34044402 45.15738705 -59.90750574 45.13001355 -61.47460938 45.10546875 C-65.30585108 45.0446232 -69.12942243 44.9272542 -72.9609375 44.8125 C-72.9609375 34.9125 -72.9609375 25.0125 -72.9609375 14.8125 C-59.7609375 14.8125 -46.5609375 14.8125 -32.9609375 14.8125 C-32.9609375 11.8425 -32.9609375 8.8725 -32.9609375 5.8125 C-46.1609375 5.8125 -59.3609375 5.8125 -72.9609375 5.8125 C-72.9609375 -2.1875 -72.9609375 -2.1875 -71.08984375 -4.17578125 C-70.24292969 -4.61277344 -69.39601562 -5.04976562 -68.5234375 -5.5 C-67.61207031 -5.974375 -66.70070313 -6.44875 -65.76171875 -6.9375 C-44.11176463 -16.59996209 -19.06176549 -14.08257081 0 0 Z " fill="#1D3A6B" transform="translate(109.9609375,25.1875)"/>
<path d="M0 0 C47.19 0 94.38 0 143 0 C143 48.84 143 97.68 143 148 C95.81 148 48.62 148 0 148 C0 99.16 0 50.32 0 0 Z M19.21484375 28.40234375 C4.43188374 45.74038327 1.68280631 64.97611784 3 87 C5.25946064 103.83194534 16.43046355 118.67346225 28.80859375 129.60546875 C43.60076191 140.70412124 61.62799878 145.61378519 80 144 C85.13832591 143.16347121 90.06463428 141.63185479 95 140 C95.89203125 139.72285156 96.7840625 139.44570312 97.703125 139.16015625 C114.096715 133.42239975 125.80399062 120.84482343 134 106 C135.04424647 103.68613013 136.04831564 101.35345306 137 99 C137.38542969 98.12859375 137.77085937 97.2571875 138.16796875 96.359375 C141.57314122 87.64422094 141.46873526 79.38839207 141.08984375 70.18701172 C141.01248702 68.30396389 140.97149016 66.41948581 140.9375 64.53515625 C140.20538127 47.12445774 129.08969539 32.2164699 116.6875 20.8125 C86.62541166 -3.53985531 45.37690607 0.96822006 19.21484375 28.40234375 Z " fill="#1D3A6B" transform="translate(0,0)"/>
<path d="M0 0 C0.66 0 1.32 0 2 0 C2 28.71 2 57.42 2 87 C1.34 87 0.68 87 0 87 C-13.40649841 71.78006219 -18.00873432 55.34624911 -17.18359375 35.24169922 C-16.7416431 29.84543471 -15.05172496 24.97122867 -13 20 C-12.63777344 19.11957031 -12.27554687 18.23914063 -11.90234375 17.33203125 C-8.95487759 10.88757135 -4.9218335 5.10653806 0 0 Z " fill="#26426F" transform="translate(27,31)"/>
<path d="M0 0 C5.91722488 0.49310207 10.09961949 2.57748459 14.1875 6.875 C17.2935609 11.720455 17.62794548 16.71352694 16.75 22.3125 C14.38129577 27.04990846 10.81145527 31.51287146 5.75 33.3125 C0.39831585 33.96094026 -3.84610425 33.98937831 -8.75 31.625 C-11.24302607 29.31895089 -12.7997934 27.37404727 -14.25 24.3125 C-14.25 23.6525 -14.25 22.9925 -14.25 22.3125 C-27.45 22.3125 -40.65 22.3125 -54.25 22.3125 C-54.25 31.8825 -54.25 41.4525 -54.25 51.3125 C-54.58 51.3125 -54.91 51.3125 -55.25 51.3125 C-55.25 41.4125 -55.25 31.5125 -55.25 21.3125 C-42.05 21.3125 -28.85 21.3125 -15.25 21.3125 C-15.25 18.0125 -15.25 14.7125 -15.25 11.3125 C-13.3736861 6.86859867 -9.89390614 2.45819266 -5.375 0.5 C-3.58256205 0.34184371 -1.79114091 0.17222509 0 0 Z " fill="#4D8DD1" transform="translate(92.25,18.6875)"/>
<path d="M0 0 C10.56 0 21.12 0 32 0 C31.67 0.99 31.34 1.98 31 3 C17.14 2.505 17.14 2.505 3 2 C3 10.25 3 18.5 3 27 C10.85342779 26.96041007 10.85342779 26.96041007 18.70678711 26.90991211 C19.6788208 26.90741455 20.65085449 26.90491699 21.65234375 26.90234375 C23.15269165 26.89448853 23.15269165 26.89448853 24.68334961 26.88647461 C27 27 27 27 28 28 C30.52596259 28.23653523 33.03107207 28.42173692 35.5625 28.5625 C36.62887695 28.62727539 36.62887695 28.62727539 37.71679688 28.69335938 C39.47761912 28.79971777 41.2387832 28.90038846 43 29 C43 29.33 43 29.66 43 30 C28.81 30 14.62 30 0 30 C0 20.1 0 10.2 0 0 Z " fill="#41587C" transform="translate(37,79)"/>
<path d="M0 0 C2.4375 1.5625 2.4375 1.5625 4 4 C4.42213381 7.43737531 4.60856522 9.82090489 3 12.9375 C-0.24370507 14.66071832 -3.4161041 14.52265149 -7 14 C-9 13 -9 13 -10 11 C-10.52265149 7.4161041 -10.66071832 4.24370507 -8.9375 1 C-5.82090489 -0.60856522 -3.43737531 -0.42213381 0 0 Z " fill="#F1F5F9" transform="translate(96,106)"/>
<path d="M0 0 C0.33 0 0.66 0 1 0 C2.30816011 12.0395959 3.33505359 23.88222833 3 36 C0.525 36.495 0.525 36.495 -2 37 C-2 38.65 -2 40.3 -2 42 C-2.66 42 -3.32 42 -4 42 C-3.54795107 38.47401834 -2.78822107 35.43119619 -1.46875 32.15625 C0.67218906 25.84160659 0.32423237 19.53220744 0.1875 12.9375 C0.16719727 11.06674805 0.16719727 11.06674805 0.14648438 9.15820312 C0.1113902 6.10501033 0.06222267 3.0527401 0 0 Z " fill="#435A7F" transform="translate(140,60)"/>
<path d="M0 0 C0.33 0 0.66 0 1 0 C0.99214478 1.17973389 0.99214478 1.17973389 0.98413086 2.38330078 C0.9632799 5.96385899 0.95031399 9.54440438 0.9375 13.125 C0.92912109 14.3625 0.92074219 15.6 0.91210938 16.875 C0.90888672 18.07382813 0.90566406 19.27265625 0.90234375 20.5078125 C0.89710693 21.60754395 0.89187012 22.70727539 0.88647461 23.84033203 C0.93170194 27.03140573 0.93170194 27.03140573 1.55297852 30.26123047 C2 33 2 33 1.25 35.3125 C0 37 0 37 -3 38 C-3.02685095 35.52076199 -3.04676547 33.0418116 -3.0625 30.5625 C-3.07506836 29.50192383 -3.07506836 29.50192383 -3.08789062 28.41992188 C-3.09653588 26.61306441 -3.05220011 24.80612397 -3 23 C-2.67 22.67 -2.34 22.34 -2 22 C-1.77285996 20.36933234 -1.60544914 18.73023997 -1.46484375 17.08984375 C-1.37783203 16.10048828 -1.29082031 15.11113281 -1.20117188 14.09179688 C-1.0706543 12.53041992 -1.0706543 12.53041992 -0.9375 10.9375 C-0.84662109 9.89271484 -0.75574219 8.84792969 -0.66210938 7.77148438 C-0.43739092 5.1813085 -0.2168769 2.59084233 0 0 Z " fill="#3E577F" transform="translate(3,60)"/>
<path d="M0 0 C2.53552912 1.26776456 2.84919575 2.46823065 4 5 C4.33 5.66 4.66 6.32 5 7 C5.08527628 9.03232634 5.10716135 11.06747006 5.09765625 13.1015625 C5.09282227 14.91914062 5.09282227 14.91914062 5.08789062 16.7734375 C5.07951172 18.04445313 5.07113281 19.31546875 5.0625 20.625 C5.05798828 21.90375 5.05347656 23.1825 5.04882812 24.5 C5.03701203 27.66671292 5.02053815 30.83333356 5 34 C4.67 34 4.34 34 4 34 C3.95512451 33.42668945 3.91024902 32.85337891 3.86401367 32.26269531 C2.70750042 17.44947767 2.70750042 17.44947767 -0.51171875 2.984375 C-0.67285156 2.32953125 -0.83398438 1.6746875 -1 1 C-0.67 0.67 -0.34 0.34 0 0 Z " fill="#193563" transform="translate(138,47)"/>
<path d="M0 0 C6.29374583 3.37053496 11.73208628 7.19016574 17 12 C16.01 12.33 15.02 12.66 14 13 C11.8125 11.6875 11.8125 11.6875 10 10 C10 9.34 10 8.68 10 8 C9.01 8.33 8.02 8.66 7 9 C6.29875 8.236875 5.5975 7.47375 4.875 6.6875 C0.3304887 2.43936987 -3.85675922 0.73133819 -10 0 C-6.15721483 -2.66038973 -4.14204838 -1.84091039 0 0 Z " fill="#284875" transform="translate(100,19)"/>
<path d="M0 0 C4.21994352 6.32991529 4.28081716 13.1406355 4.125 20.5 C4.11597656 21.32242188 4.10695312 22.14484375 4.09765625 22.9921875 C4.07436865 24.99492083 4.03850959 26.99750154 4 29 C3.67 29 3.34 29 3 29 C2.67 24.71 2.34 20.42 2 16 C1.67 16 1.34 16 1 16 C1.01160156 15.43152344 1.02320313 14.86304687 1.03515625 14.27734375 C1.09223194 9.39329516 0.81956772 4.81496035 0 0 Z " fill="#5E7392" transform="translate(130,53)"/>
<path d="M0 0 C0.144375 1.11375 0.28875 2.2275 0.4375 3.375 C0.78372035 6.82142047 0.78372035 6.82142047 2 9 C-0.64 8.67 -3.28 8.34 -6 8 C-3.73913043 0 -3.73913043 0 0 0 Z " fill="#41587D" transform="translate(86,110)"/>
<path d="M0 0 C0.66 0.99 1.32 1.98 2 3 C1.01906046 5.45234885 0.31296172 6.7809268 -1.875 8.3125 C-4.35009306 9.1132654 -5.58287634 8.86325845 -8 8 C-6.824375 7.87625 -6.824375 7.87625 -5.625 7.75 C-2.89126491 7.27540932 -2.89126491 7.27540932 -1.75 5.125 C-1.14919925 3.42273121 -0.57084854 1.71254562 0 0 Z " fill="#40557A" transform="translate(92,77)"/>
<path d="M0 0 C1.04449911 3.13349732 0.93423645 3.98968256 0 7 C-1.65 7.33 -3.3 7.66 -5 8 C-3.62845496 5.04590299 -2.01136276 2.55991624 0 0 Z " fill="#354B75" transform="translate(26,32)"/>
<path d="M0 0 C0 3.19131 -0.13209062 4.45285085 -2 7 C-5.125 7.75 -5.125 7.75 -8 8 C-5.33333333 5.33333333 -2.66666667 2.66666667 0 0 Z " fill="#30476D" transform="translate(122,122)"/>
<path d="M0 0 C0 0.33 0 0.66 0 1 C-3.3 1.66 -6.6 2.32 -10 3 C-10 2.01 -10 1.02 -10 0 C-6.30581799 -1.231394 -3.7943739 -0.64432764 0 0 Z " fill="#2C456E" transform="translate(63,15)"/>
<path d="M0 0 C1.98 0.99 3.96 1.98 6 3 C6 3.66 6 4.32 6 5 C3.03 4.01 0.06 3.02 -3 2 C-2.01 1.34 -1.02 0.68 0 0 Z " fill="#3E547A" transform="translate(101,9)"/>
<path d="M0 0 C0.66 0 1.32 0 2 0 C1.75 2.375 1.75 2.375 1 5 C-1.0625 6.3125 -1.0625 6.3125 -3 7 C-1.125 2.25 -1.125 2.25 0 0 Z " fill="#394F75" transform="translate(133,106)"/>
</svg>
